<svg width="100" height="100" viewBox="0 0 100 100" fill="none" xmlns="http://www.w3.org/2000/svg">
<path fill-rule="evenodd" clip-rule="evenodd" d="M37.3559 49.5398C39.4774 49.5398 40.9917 48.1755 40.9917 46.2456C40.9917 44.7678 39.8565 43.7836 38.2276 43.7836H30.9551C28.9096 43.7836 27.3943 44.9188 26.9027 47.0403L22.6983 65.5242C22.2057 67.6446 23.0764 69.4245 25.4249 69.4245H32.735C35.0835 69.4245 36.7113 68.0987 36.7113 66.0918C36.7113 64.6535 35.6896 63.6683 34.2888 63.6683H30.1594L31.1821 59.1994H34.2128C36.3342 59.1994 37.8871 57.8736 37.8871 55.8656C37.8871 54.4263 36.7498 53.4036 35.0835 53.4036H32.4704L33.3411 49.5398H37.3559Z" fill="#4F4F4F"/>
<path fill-rule="evenodd" clip-rule="evenodd" d="M72.3299 48.3391L75.4731 34.5907C75.9282 32.6578 74.9815 30.8779 72.5955 30.8779C70.7386 30.8779 69.0347 32.0902 68.5806 34.0221L65.1709 49.0588C64.7918 50.8012 64.2617 51.8999 62.7474 51.8999C61.3456 51.8999 60.777 50.9147 61.1946 49.0973L64.4512 34.6282C64.9063 32.6578 63.6931 30.8779 61.3456 30.8779C59.6022 30.8779 58.0494 32.0902 57.5953 34.0596L54.5281 47.6195C53.1648 53.6413 55.7779 57.5051 62.0267 57.5051C67.3288 57.5051 71.0416 53.9818 72.3299 48.3391Z" fill="#4F4F4F"/>
<path fill-rule="evenodd" clip-rule="evenodd" d="M52.0432 57.9733H48.1418L51.8536 41.4588C52.3462 39.2998 51.0215 37.748 48.7855 37.748C47.0431 37.748 45.3767 39.0353 44.9612 40.9662L40.7557 59.8292C40.2267 62.1777 41.2494 63.7305 43.4833 63.7305H50.8694C53.521 63.7305 54.8468 62.4807 54.8468 60.4738C54.8468 59.0335 53.749 57.9733 52.0432 57.9733Z" fill="#4F4F4F"/>
<path fill-rule="evenodd" clip-rule="evenodd" d="M73.3297 63.9777C75.4653 63.9777 76.856 62.587 76.856 60.5193C76.856 58.5529 75.6012 57.2636 73.6348 57.2636C71.5336 57.2636 70.1429 58.6208 70.1429 60.6886C70.1429 62.6894 71.3978 63.9777 73.3297 63.9777Z" fill="#4F4F4F"/>
<path fill-rule="evenodd" clip-rule="evenodd" d="M8.06557 77.089L10.7749 80.518C10.9756 80.7724 11.2675 80.8353 11.5564 80.6792L22.3066 75.4217C22.709 75.226 22.8387 74.9291 22.5904 74.6138L19.8942 71.2C19.6449 70.8848 19.2739 70.8149 19.0195 71.0145C18.8097 71.1798 18.8046 71.4514 18.982 71.6764L21.3842 74.7152L16.6213 77.0434L14.5749 74.4527C14.3266 74.1374 13.9647 74.0817 13.7113 74.2824C13.5177 74.4354 13.4974 74.7192 13.6626 74.9291L15.6868 77.4894L11.3537 79.623L8.98794 76.6268C8.75177 76.3278 8.36863 76.2427 8.09902 76.4545C7.8892 76.6207 7.89934 76.8792 8.06557 77.089ZM4.64468 63.3224C3.0807 63.9407 2.41781 65.2695 3.17699 67.1872L3.99801 69.2661C4.11761 69.5681 4.38723 69.7283 4.70854 69.6634L16.6517 67.6514C16.9629 67.6099 17.1808 67.2764 17.0541 66.9581C16.9558 66.7088 16.6903 66.6084 16.3781 66.65L10.8509 67.5825L10.1262 65.753L14.808 62.4223C15.029 62.253 15.1141 62.0544 15.0239 61.8222C14.883 61.4675 14.4999 61.3317 14.1512 61.5932L9.6113 64.8671C8.47405 63.1815 6.5472 62.5693 4.64468 63.3224ZM9.23323 66.0864L9.887 67.7376L4.78354 68.6062L4.12268 66.9358C3.61588 65.6577 4.14903 64.7698 5.26804 64.3258C6.90399 63.6791 8.545 64.3441 9.23323 66.0864ZM0.891335 56.5495L13.0302 57.4465C13.3626 57.478 13.6393 57.2459 13.5917 56.9063C13.5582 56.661 13.391 56.4329 13.0018 56.4096L0.882213 55.5096C0.533536 55.5015 0.244661 55.6373 0.299395 56.0346C0.341966 56.3367 0.56293 56.5373 0.891335 56.5495ZM12.3622 44.7067L0.763622 44.8222C0.283177 44.8344 0.0236968 45.0493 0.00241127 45.4496C-0.021915 45.8895 0.13722 46.146 0.507182 46.376L11.9142 52.6198C12.3044 52.8316 12.6754 52.6796 12.6947 52.3177C12.7119 52.0309 12.6045 51.892 12.2892 51.7025L8.94132 49.9135L9.16633 45.774L12.5345 45.7659C12.8406 45.7638 13.0616 45.5844 13.0768 45.2793C13.0981 44.8982 12.7818 44.7097 12.3622 44.7067ZM1.24711 45.7851L1.24812 45.7659L8.17706 45.7213L7.97333 49.4594L1.24711 45.7851ZM14.2992 35.9928L12.9683 39.6519L3.13341 33.4922C2.82933 33.3199 2.5212 33.3301 2.39044 33.6889C2.29314 33.9585 2.3874 34.2565 2.67324 34.4217L12.8518 40.8084C13.2126 41.0415 13.5582 40.9837 13.6961 40.6077L15.1841 36.5188C15.3077 36.1772 15.1972 35.8113 14.8759 35.6948C14.6245 35.6025 14.3914 35.7424 14.2992 35.9928ZM19.8476 26.5957L9.88193 20.6611C9.46636 20.4229 9.13187 20.4716 8.90483 20.802C8.6565 21.1639 8.65751 21.4659 8.85415 21.8561L15.3483 33.1223C15.5702 33.5064 15.9676 33.5693 16.1723 33.2702C16.3355 33.0341 16.3162 32.8597 16.146 32.5334L14.2171 29.2655L16.5625 25.8457L19.4442 27.5911C19.7057 27.7482 19.9875 27.7097 20.1608 27.4583C20.3757 27.1431 20.2054 26.8187 19.8476 26.5957ZM9.79375 21.7355L9.8049 21.7193L15.7456 25.2851L13.6262 28.3726L9.79375 21.7355ZM24.1493 23.1302C25.9626 21.547 26.2758 19.3232 24.8426 17.6832C22.7414 15.2799 19.8942 17.1602 18.0464 15.0448C17.1656 14.0373 17.2173 12.6719 18.4113 11.6279C19.1452 10.9884 19.7898 11.0583 20.0199 10.8566C20.25 10.6559 20.1882 10.3549 20.0503 10.1957C19.9388 10.067 19.7361 10.067 19.4624 10.1035C18.983 10.1927 18.3282 10.4603 17.7981 10.9245C16.1277 12.3841 15.9392 14.3728 17.2974 15.9266C19.3966 18.3298 22.2336 16.4354 24.1564 18.637C25.0119 19.6151 24.9348 21.1547 23.6263 22.2981C22.5904 23.2022 21.7745 22.8495 21.4298 23.1515C21.2281 23.3279 21.219 23.6654 21.3944 23.8671C21.5332 24.0252 21.7613 24.0546 22.0877 24.0222C22.7404 23.9837 23.5756 23.633 24.1493 23.1302ZM25.7214 6.29744L29.4332 17.8889C29.5285 18.2082 29.8467 18.3785 30.1447 18.2072C30.3596 18.0835 30.5086 17.8443 30.3839 17.4754L26.6823 5.90011C26.5596 5.57272 26.3255 5.3548 25.9778 5.55448C25.7123 5.70652 25.6109 5.98728 25.7214 6.29744ZM35.7195 1.62172L34.0866 2.09203C33.7927 2.17717 33.6204 2.40523 33.6609 2.75087L34.5093 14.5775C34.5346 14.9465 34.6613 15.3864 35.158 15.2424L37.397 14.5968C40.9953 13.5588 42.3728 9.38486 41.1382 5.10647C40.2371 1.9856 38.2717 0.883825 35.7195 1.62172ZM37.0169 13.6947L35.4945 14.1346L34.7231 2.92014L36.0824 2.52788C37.917 1.99878 39.4364 2.99211 40.1945 5.61732C41.2396 9.23383 40.0273 12.826 37.0169 13.6947ZM56.7364 12.1368L52.8868 11.5499L56.9939 0.69631C57.1023 0.365878 57.0334 0.0648396 56.6553 0.00706459C56.3715 -0.0355064 56.0979 0.115519 55.9914 0.427707L51.7303 11.6634C51.5732 12.0638 51.6968 12.3902 52.0931 12.451L56.3948 13.1068C56.7526 13.1625 57.0892 12.9821 57.1409 12.6426C57.1814 12.379 57 12.1773 56.7364 12.1368ZM70.9693 1.11087C70.3358 0.843281 69.5686 1.03688 69.0851 1.78694C68.9219 2.02919 69.0313 2.26029 69.226 2.34239C69.3669 2.40219 69.6314 2.41131 69.7713 2.18021C69.9851 1.77376 70.3237 1.70687 70.6045 1.82647C71.2907 2.11737 71.1194 3.16239 72.211 3.62358C72.9682 3.94184 73.8338 3.56276 74.1784 2.94244C74.3243 2.69208 74.2676 2.48227 74.0568 2.39307C73.8814 2.31908 73.6432 2.34239 73.5054 2.57349C73.2976 2.96474 72.9519 3.04684 72.582 2.89075C71.7893 2.55626 71.989 1.54165 70.9693 1.11087ZM63.1079 15.2718C66.6636 16.7719 70.6237 13.4271 72.2505 9.57034C73.4233 6.78904 72.8891 4.86523 70.795 3.98239C67.2201 2.47314 63.2478 5.89707 61.6362 9.71732C60.4624 12.4996 61.0108 14.388 63.1079 15.2718ZM63.6157 14.4113C62.1014 13.7717 61.777 12.3283 62.7055 10.1278C64.0637 6.9056 67.3883 3.59925 70.2233 4.79529C71.7731 5.45008 72.1248 6.92486 71.1893 9.14362C69.8372 12.3476 66.5024 15.6286 63.6157 14.4113ZM80.5083 10.7765L71.2562 18.6846C70.9977 18.8964 70.9643 19.2553 71.2369 19.463C71.4356 19.6141 71.7123 19.6587 72.0052 19.4002L81.2452 11.5063C81.4996 11.2681 81.6101 10.9671 81.2908 10.7248C81.0485 10.5393 80.7495 10.5515 80.5083 10.7765ZM76.0312 22.7694C76.1529 22.9407 76.4255 23.0268 76.6921 22.9072L86.6852 18.5964L86.6963 18.6126L78.8612 25.3237C78.5865 25.5649 78.4801 25.8761 78.7132 26.2024C78.8561 26.4052 79.1207 26.545 79.5423 26.4781L91.1845 24.7439L91.1957 24.7591L81.2016 29.0699C80.9502 29.1773 80.8286 29.4997 81.006 29.749C81.1388 29.9355 81.4226 30.0379 81.6891 29.9183L92.7373 25.1128C93.1823 24.9142 93.3141 24.5381 93.0151 24.1195C92.8367 23.8702 92.5995 23.7343 92.3207 23.7708L79.9082 25.6085L79.8971 25.5933L88.3383 18.3805C88.5441 18.2102 88.5492 17.8545 88.3383 17.5595C88.0951 17.2179 87.7464 17.0912 87.2447 17.3081L76.2269 22.0913C75.9654 22.1835 75.8539 22.5211 76.0312 22.7694ZM96.0518 32.1634L84.0447 34.1632C83.7153 34.2119 83.5014 34.5008 83.6271 34.8211C83.7184 35.0511 83.9343 35.2326 84.3174 35.1636L96.3062 33.1709C96.6478 33.0979 96.8971 32.8962 96.7492 32.5242C96.6366 32.2404 96.3741 32.0975 96.0518 32.1634ZM85.9564 42.422C86.0344 42.8356 86.2706 43.0626 86.599 43.1559L99.2365 46.5919C99.648 46.7095 99.9947 46.4886 99.9207 46.0943C99.8812 45.8875 99.7747 45.7324 99.5244 45.6442L87.5153 42.4413L87.5082 42.4028L98.2837 39.7583C98.525 39.6944 98.6628 39.3954 98.6132 39.1329C98.5574 38.8329 98.2635 38.616 97.8357 38.7163L86.4054 41.6C86.0506 41.6861 85.8895 42.0662 85.9564 42.422Z" fill="#4F4F4F"/>
<path fill-rule="evenodd" clip-rule="evenodd" d="M31.8396 91.9669L37.2735 84.6376C37.4448 84.3994 37.4569 84.0487 37.1275 83.8987C36.9005 83.7953 36.5934 83.8237 36.3815 84.1054L30.8898 91.5148C29.8732 92.8761 28.6741 93.5278 26.953 92.7443C25.2299 91.9618 24.9694 90.6462 26.0438 89.2038L31.4311 81.9779C31.6024 81.7407 31.6136 81.39 31.2669 81.2319C31.0226 81.1214 30.7003 81.1853 30.5219 81.4397L25.2228 88.6616C23.7815 90.63 23.9761 92.4585 26.428 93.5745C28.6711 94.5941 30.4297 93.8654 31.8396 91.9669ZM45.0549 95.5307L48.274 86.9932C48.3734 86.7175 48.2892 86.3769 47.9304 86.3222C47.6851 86.2857 47.3983 86.3972 47.2716 86.7256L44.019 95.3543C43.4118 96.9447 42.4367 97.8995 40.5666 97.6167C38.6966 97.3349 38.0844 96.1409 38.7239 94.4603L41.9259 86.0363C42.0252 85.7607 41.9421 85.4211 41.565 85.3623C41.3005 85.3228 41.0065 85.4718 40.9042 85.7657L37.7843 94.1644C36.938 96.451 37.6262 98.1559 40.2899 98.5583C42.7266 98.9263 44.2186 97.7424 45.0549 95.5307ZM57.1065 85.7525L52.7693 86.3029C52.449 86.3435 52.2463 86.5614 52.2291 86.8908L51.1841 98.8097C51.1445 99.2567 51.331 99.5212 51.7304 99.4706L56.0463 98.9232C56.4436 98.8715 56.697 98.5897 56.6555 98.2684C56.622 98.0049 56.3929 97.8599 56.1081 97.8964L52.2656 98.385L52.7288 93.1042L56.0047 92.6876C56.4021 92.6379 56.6362 92.3581 56.5957 92.0368C56.5642 91.7915 56.3321 91.6284 56.0666 91.6618L52.8301 92.0723L53.2386 87.2618L57.0254 86.7813C57.4045 86.7327 57.6751 86.4479 57.6326 86.1083C57.5981 85.8427 57.3711 85.7181 57.1065 85.7525ZM66.9171 82.357C66.6708 82.4594 66.5471 82.7594 66.5978 83.028L68.5024 93.2217L62.138 85.0917C61.839 84.7197 61.5744 84.5818 61.2389 84.7217C60.9916 84.8241 60.7757 85.1008 60.871 85.5772L63.0796 97.4454C63.1222 97.6957 63.3422 97.9775 63.6949 97.8306C63.9777 97.713 64.1054 97.4738 64.0334 97.1514L62.0843 86.6029L68.8237 95.1364C69.0051 95.3706 69.2342 95.5236 69.4987 95.4131C69.7805 95.2966 69.891 95.0644 69.8119 94.7249L67.5841 82.7624C67.5445 82.4685 67.3053 82.1948 66.9171 82.357ZM72.3165 78.9138L70.9958 79.9842C70.7576 80.1767 70.6877 80.4545 70.859 80.7565L76.2493 91.3182C76.4165 91.6466 76.7064 92.0034 77.1068 91.677L78.9171 90.2093C81.8251 87.8517 81.4693 83.4709 78.6637 80.0125C76.6193 77.4877 74.3802 77.2404 72.3165 78.9138ZM78.2167 89.5272L76.9841 90.5256L71.904 80.4981L73.0017 79.6081C74.4866 78.405 76.2736 78.7273 77.9947 80.8498C80.3655 83.774 80.6493 87.5537 78.2167 89.5272ZM89.2851 74.1398L82.8387 67.6821C82.6309 67.4774 82.2863 67.4125 82.0876 67.7176C81.9518 67.9254 81.9356 68.2325 82.1819 68.4849L88.6973 75.0104C89.8933 76.2197 90.3596 77.5019 89.3318 79.0892C88.3009 80.6765 86.963 80.7393 85.696 79.4632L79.3468 73.0674C79.137 72.8626 78.7914 72.7978 78.5826 73.1181C78.4387 73.3431 78.4528 73.6715 78.6779 73.8864L85.0372 80.196C86.7704 81.913 88.6081 81.9901 90.0737 79.7308C91.4147 77.663 90.9535 75.8142 89.2851 74.1398ZM96.282 68.5964C97.1111 66.3371 96.3175 64.2359 94.272 63.4859C91.2769 62.3851 89.6805 65.4026 87.0431 64.4346C85.7882 63.9734 85.1781 62.752 85.7244 61.262C86.0599 60.3488 86.6599 60.1015 86.7643 59.8136C86.8708 59.5268 86.6721 59.2916 86.4744 59.2186C86.3133 59.1598 86.1349 59.2571 85.9139 59.4203C85.5369 59.7295 85.0909 60.2778 84.8476 60.9397C84.0844 63.0216 84.873 64.8562 86.8099 65.5678C89.8061 66.6675 91.3843 63.644 94.1291 64.6515C95.3485 65.0995 96.0205 66.4871 95.4215 68.119C94.9481 69.4093 94.0632 69.4914 93.9041 69.9212C93.8129 70.1726 93.9659 70.4726 94.2173 70.5658C94.415 70.6378 94.6288 70.5547 94.9005 70.3682C95.4539 70.0225 96.0185 69.313 96.282 68.5964Z" fill="#4F4F4F"/>
</svg>
