<?xml version="1.0" encoding="UTF-8"?>
<svg width="100px" height="100px" viewBox="0 0 100 100" version="1.1" xmlns="http://www.w3.org/2000/svg" xmlns:xlink="http://www.w3.org/1999/xlink">
    <title>LIFE</title>
    <g id="Pages" stroke="none" stroke-width="1" fill="none" fill-rule="evenodd">
        <g id="Home-04" transform="translate(-40.000000, -40.000000)" fill="#262262">
            <path d="M94.0333348,131.757301 C94.1997579,131.748946 94.3354137,131.83668 94.3438048,132.0024 C94.3542937,132.215468 94.1717877,132.378403 93.9333411,132.39024 L93.9333411,132.39024 L91.5544696,132.506522 L91.0684861,135.468591 L93.1026241,135.368323 C93.2697464,135.360664 93.4061015,135.472769 93.4137933,135.624562 C93.4235829,135.827186 93.2648516,135.988728 93.0145177,136.001262 L93.0145177,136.001262 L90.956605,136.102226 L90.4139818,139.351867 L92.8285154,139.233496 C93.0075251,139.223747 93.143181,139.324711 93.151572,139.490431 C93.1613616,139.690966 92.9900437,139.853901 92.7404091,139.865738 L92.7404091,139.865738 L90.0286913,139.999428 C89.7783574,140.011265 89.6741681,139.838582 89.7210183,139.563543 L89.7210183,139.563543 L90.9440184,132.228698 C90.9698909,132.026074 91.1069452,131.900739 91.3090304,131.890295 L91.3090304,131.890295 Z M99.9665285,130.662715 C100.223855,130.611188 100.336435,130.807545 100.324548,130.990673 L100.324548,130.990673 L100.221058,138.552512 C100.228051,138.769062 100.132252,138.897182 99.9455508,138.933389 C99.7700374,138.968205 99.6483667,138.846352 99.5665537,138.682024 L99.5665537,138.682024 L96.4884254,132.661101 L96.3884316,139.325407 C96.3926272,139.530817 96.2856409,139.661025 96.0982401,139.697929 C95.8646883,139.744581 95.7639953,139.546135 95.7688901,139.388075 L95.7688901,139.388075 L95.8716809,131.886813 C95.8716809,131.585315 96.038104,131.443269 96.2010308,131.410543 C96.4233945,131.36598 96.5681406,131.482262 96.7065935,131.745464 L96.7065935,131.745464 L99.6050128,137.476726 L99.6882243,131.032451 C99.6910214,130.862553 99.8029025,130.694048 99.9665285,130.662715 Z M81.6252211,131.17403 L81.7040394,131.179371 L82.7529246,131.338824 C84.3912832,131.5881 85.2171054,132.720983 84.9115302,134.716585 C84.4926754,137.451659 82.6200658,139.447957 80.3097214,139.09702 L80.3097214,139.09702 L78.8720495,138.878382 C78.5538877,138.82964 78.5965423,138.549031 78.6776561,138.333873 L78.6776561,138.333873 L81.2900794,131.440484 C81.3579073,131.234378 81.5152401,131.150822 81.7040394,131.179371 Z M81.8487856,131.812309 L79.3524389,138.340836 L80.3306991,138.489149 C82.2634448,138.782988 83.8892168,137.072174 84.2430408,134.758363 C84.5003672,133.080275 83.8997057,132.123556 82.7207588,131.944606 L82.7207588,131.944606 L81.8487856,131.812309 Z M76.5498177,130.144666 C76.6442174,129.963627 76.8162346,129.892605 77.0092294,129.953183 L77.0092294,129.953183 L79.6125624,130.764375 C79.7712937,130.813812 79.8684904,130.943324 79.8181439,131.101385 C79.7545115,131.304009 79.5258546,131.395224 79.2992954,131.324201 L79.2992954,131.324201 L77.0260116,130.616062 L75.542888,133.228587 L77.4868218,133.833674 C77.6462524,133.883807 77.7357572,134.035601 77.6896063,134.182521 C77.6294702,134.375397 77.4238887,134.472183 77.1854422,134.398375 L77.1854422,134.398375 L75.2184328,133.784933 L73.582172,136.648126 L75.8904186,137.366014 C76.060338,137.420325 76.1533392,137.560978 76.1036919,137.719039 C76.0435558,137.911914 75.8267862,138.004523 75.5876404,137.930715 L75.5876404,137.930715 L72.9961948,137.123701 C72.7577483,137.047804 72.7199884,136.85075 72.8584412,136.609133 L72.8584412,136.609133 Z M105.886436,128.697054 C106.122086,128.613498 106.292005,128.806373 106.25914,129.068183 L106.25914,129.068183 L105.371084,137.159212 C105.345911,137.369495 105.228436,137.537304 104.981598,137.625038 C104.768325,137.700239 104.517991,137.637571 104.431283,137.429377 L104.431283,137.429377 L101.541255,130.691959 C101.437765,130.439202 101.542653,130.23797 101.722362,130.173911 C101.879695,130.118206 102.076885,130.173911 102.140518,130.31526 L102.140518,130.31526 L104.818671,136.673889 L104.841047,136.66623 L105.647291,128.982538 C105.677359,128.821692 105.762668,128.741617 105.886436,128.697054 Z M108.062523,127.648423 C108.289782,127.543978 108.424039,127.690898 108.482777,127.899092 L108.482777,127.899092 L110.18267,135.2597 C110.240708,135.49505 110.13582,135.635703 109.995269,135.701156 C109.801575,135.791675 109.612776,135.669822 109.570121,135.467198 L109.570121,135.467198 L107.865333,128.096145 C107.81149,127.897699 107.890506,127.729891 108.062523,127.648423 Z M70.4075463,129.554898 C70.9145074,128.375363 72.0836647,127.945048 73.3563121,128.487467 C73.7611817,128.66015 74.0877346,128.952597 74.2688422,129.197695 C74.3625426,129.341133 74.4177838,129.454631 74.3751292,129.552809 C74.3233842,129.673269 74.1709462,129.788159 73.9954328,129.713655 C73.8199193,129.639151 73.6849627,129.258273 73.1262566,129.020834 C72.2165235,128.632298 71.4347545,128.972093 71.106803,129.73524 C70.4166366,131.340913 72.2451931,132.429929 71.4620255,134.252848 C70.927094,135.497139 69.5915136,135.921883 68.2104815,135.333508 C67.7727467,135.146899 67.3496964,134.773681 67.1511075,134.418567 C67.0448204,134.244492 66.9993687,134.108713 67.0504145,133.988949 C67.1161446,133.835763 67.3091395,133.750118 67.4622767,133.81557 C67.7251973,133.927675 67.7475735,134.479146 68.5363351,134.814067 C69.5341745,135.240204 70.4208321,134.869075 70.7396932,134.126121 C71.4571307,132.455692 69.6250779,131.378513 70.4075463,129.554898 Z M111.797953,125.626362 C112.890192,124.948164 113.781045,125.205796 114.336255,126.092885 C115.011038,127.171456 114.851607,128.417837 113.943273,129.300748 L113.943273,129.300748 L116.462695,131.710649 C116.662682,131.895169 116.622126,132.143053 116.419341,132.269779 C116.287881,132.350551 116.15712,132.32061 116.027757,132.204327 L116.027757,132.204327 L113.457289,129.715048 L112.415397,130.361912 L113.608329,133.63662 C113.668465,133.823229 113.636998,133.996608 113.495049,134.085039 C113.313243,134.19784 113.083886,134.10175 113.02445,133.914445 L113.02445,133.914445 L110.449786,126.83932 C110.373567,126.649926 110.442094,126.468191 110.614111,126.361657 L110.614111,126.361657 Z M66.0113189,124.999691 C66.1420799,124.856949 66.3462629,124.843023 66.4889113,124.93006 C66.6916958,125.055395 66.6553344,125.270552 66.5308667,125.403546 L66.5308667,125.403546 L62.6262169,129.434438 C61.8465456,130.23797 61.9045839,131.069355 62.9087166,131.687671 C63.9121501,132.305987 64.7058065,131.998222 65.4442217,131.239949 L65.4442217,131.239949 L69.4285868,127.103915 C69.581724,126.947943 69.7740196,126.95421 69.9054799,127.035678 C70.0984748,127.152656 70.0628127,127.369206 69.938345,127.500807 L69.938345,127.500807 L65.995236,131.592278 C64.9729226,132.652746 63.8268408,132.963296 62.5178321,132.157675 C61.0892505,131.277549 61.112326,130.134918 62.1598126,129.035457 L62.1598126,129.035457 Z M116.821414,121.814109 C117.905961,120.90265 119.127563,121.148444 120.342172,122.582826 C122.025982,124.570769 122.765796,127.707609 120.923953,129.254096 C119.838707,130.165555 118.633188,129.937168 117.418579,128.502786 C115.750152,126.532948 114.970481,123.368255 116.821414,121.814109 Z M113.789436,126.585866 C113.391559,125.950839 112.786702,125.725237 112.058077,126.177137 L112.058077,126.177137 L111.107087,126.767601 L112.211913,129.790944 L113.153812,129.206051 C114.145358,128.59052 114.36982,127.513341 113.789436,126.585866 Z M57.2622182,124.755985 C59.0012698,122.705376 62.1248498,121.447854 63.9834743,123.010356 C64.2470941,123.233172 64.5128117,123.564612 64.6729415,123.854274 C64.8113943,124.094498 64.8764252,124.257433 64.753356,124.402263 C64.6379786,124.538739 64.4869392,124.551272 64.3680655,124.451701 C64.2135298,124.321492 64.0380163,123.846614 63.6282518,123.502641 C62.0430367,122.169919 59.3627855,123.398196 57.8859552,125.14104 C56.9783199,126.211256 56.9713274,127.231338 57.9006396,128.012589 C58.4747294,128.495126 59.0313378,128.574505 59.1676929,128.690091 C59.2592955,128.766684 59.304048,128.896893 59.1886706,129.033368 C59.0963687,129.141991 58.9621114,129.153132 58.7810039,129.109265 C58.3670439,129.009694 57.7377128,128.665024 57.3272491,128.321051 C56.1608888,127.340658 56.1545955,126.062247 57.2622182,124.755985 Z M119.803744,123.050741 C118.835273,121.906717 117.914352,121.685989 117.112305,122.36001 C115.644565,123.592464 116.541711,126.365835 117.948616,128.025123 C118.910094,129.160791 119.804443,129.387089 120.58831,128.72978 C122.08402,127.472955 121.202957,124.703066 119.803744,123.050741 Z M122.914038,115.725645 C123.088153,115.53068 123.295133,115.618414 123.397924,115.772993 L123.397924,115.772993 L127.901837,121.860761 C128.038891,122.029266 128.040289,122.189416 127.913724,122.331461 C127.79555,122.464455 127.624232,122.440781 127.459207,122.358617 L127.459207,122.358617 L121.353297,119.409778 L125.316684,124.782444 C125.443949,124.94329 125.436956,125.111795 125.31109,125.253841 C125.153058,125.431398 124.953071,125.333916 124.86007,125.2051 L124.86007,125.2051 L120.392518,119.165376 C120.209313,118.92376 120.255464,118.709995 120.366646,118.586053 C120.516287,118.418244 120.702289,118.422422 120.972202,118.549845 L120.972202,118.549845 L126.758552,121.374742 L122.916136,116.187293 C122.814744,116.051514 122.802856,115.850283 122.914038,115.725645 Z M52.1660348,119.033775 C54.1043746,117.32505 57.2629174,116.473473 58.8677117,118.278288 C59.8082121,119.337363 59.590044,120.55798 58.1796431,121.802272 C56.2238219,123.525619 53.0925501,124.337507 51.4961468,122.539656 C50.5549472,121.482669 50.7556339,120.276674 52.1660348,119.033775 Z M58.326487,118.581179 C57.0538397,117.149582 54.2910762,118.109086 52.6576123,119.550431 C51.5408993,120.534306 51.3346185,121.430447 52.0142961,122.194986 C53.3107182,123.653043 56.0720832,122.71025 57.6971559,121.27726 C58.8222601,120.285726 59.0215482,119.363822 58.326487,118.581179 Z M127.020773,109.36423 C127.189993,109.091976 127.43753,109.077353 127.659894,109.282762 L127.659894,109.282762 L133.094517,114.457679 C133.228075,114.582317 133.237865,114.768926 133.162345,114.890082 C133.062352,115.052321 132.84768,115.058587 132.724611,114.940216 L132.724611,114.940216 L127.829114,110.252711 L127.822821,110.263156 L131.634469,116.515947 C131.774321,116.740853 131.757538,116.926069 131.675725,117.056278 C131.544265,117.269346 131.340082,117.283272 131.134501,117.184397 L131.134501,117.184397 L125.379617,114.30867 L125.373324,114.319811 L130.268122,119.008012 C130.40168,119.131954 130.417762,119.309511 130.348536,119.420223 C130.248542,119.580372 130.027577,119.599172 129.910801,119.470357 L129.910801,119.470357 L124.496456,114.309366 C124.250318,114.074016 124.23913,113.84354 124.376184,113.622116 C124.495757,113.429937 124.701338,113.347077 124.849581,113.425063 L124.849581,113.425063 L131.039402,116.525696 L131.044996,116.515947 L126.987908,109.846071 C126.900501,109.694277 126.920779,109.525772 127.020773,109.36423 Z M54.1673077,112.9286 C54.3624004,112.85688 54.5344175,112.901444 54.6518927,113.080393 L54.6518927,113.080393 L56.0790757,115.243107 C56.1643851,115.372619 56.1336178,115.518843 55.9937664,115.610755 C55.8252455,115.721467 55.6105737,115.676903 55.4868052,115.488902 L55.4868052,115.488902 L54.2491208,113.613064 L51.2409181,114.785637 L52.3142773,116.413591 C52.4121732,116.5626 52.3946918,116.729712 52.2555397,116.820928 C52.0870188,116.930943 51.8590611,116.866883 51.7220068,116.658689 L51.7220068,116.658689 L50.6353618,115.011239 L47.4320665,116.253441 C47.2362746,116.325161 47.0586634,116.271545 46.9600682,116.122537 C46.8356005,115.933839 46.9327972,115.756282 47.1383786,115.678992 L47.1383786,115.678992 Z M129.211545,104.301418 C129.277275,104.148232 129.415728,104.066068 129.569564,104.13152 C129.766055,104.215077 129.833184,104.450427 129.739483,104.667673 L129.739483,104.667673 L128.803179,106.849187 L131.263863,108.581586 L132.065211,106.716193 C132.130242,106.563703 132.291071,106.490591 132.43372,106.55117 C132.619722,106.630548 132.695941,106.843617 132.598045,107.0727 L132.598045,107.0727 L131.787606,108.958982 L134.483241,110.868242 L135.434231,108.654002 C135.504156,108.491067 135.654496,108.411689 135.807634,108.477837 C135.992937,108.555823 136.06496,108.781425 135.966365,109.010508 L135.966365,109.010508 L134.8986,111.497003 C134.800704,111.72539 134.599318,111.743494 134.370661,111.581255 L134.370661,111.581255 L128.285029,107.273931 C128.113012,107.161827 128.059169,106.98427 128.139584,106.798357 L128.139584,106.798357 Z M67.4410193,83.3719036 C69.7387771,83.3719036 71.1009293,84.9608647 70.5953666,87.1709272 L70.5953666,87.1709272 L66.7795224,104.07505 L70.78976,104.07505 C72.5420975,104.07505 73.6706979,105.161281 73.6706979,106.634656 C73.6706979,108.689443 72.3078465,109.96855 69.5828428,109.96855 L69.5828428,109.96855 L61.9903128,109.96855 C59.692555,109.96855 58.6415721,108.379589 59.1862931,105.975258 L59.1862931,105.975258 L63.5083992,86.6668045 C63.9370436,84.6893069 65.6502227,83.3719036 67.4410193,83.3719036 Z M49.841076,103.174175 C50.0410634,103.097582 50.2431486,103.222916 50.3242624,103.433895 L50.3242624,103.433895 L51.3011241,105.956597 C51.3913283,106.189162 51.2521762,106.356971 50.9864586,106.395268 L50.9864586,106.395268 L43.5792316,107.560181 C43.3771464,107.598478 43.2107233,107.498906 43.1463917,107.33249 C43.0603831,107.11037 43.2009337,106.980858 43.4149063,106.936991 L43.4149063,106.936991 L50.5676038,105.806893 L49.6935328,103.548785 C49.6333967,103.392814 49.685841,103.234057 49.841076,103.174175 Z M98.3211074,79.5418946 C99.9958274,79.5418946 101.125127,80.5884364 101.125127,82.1008043 C101.125127,84.0386127 99.6063414,85.4346982 97.4260588,85.4346982 L97.4260588,85.4346982 L93.7661488,85.4346982 L92.6760075,90.28096 L95.0898419,90.28096 C96.8023217,90.28096 97.9323207,91.3281981 97.9323207,92.840566 C97.9323207,94.8173673 96.3750758,96.2127565 94.1549356,96.2127565 L94.1549356,96.2127565 L91.3516152,96.2127565 L89.7943703,102.882633 C89.3265676,104.858738 87.5749293,106.137845 85.5890401,106.137845 C83.2919816,106.137845 82.2794578,104.356008 82.7465613,102.300525 L82.7465613,102.300525 L87.1462849,82.8757884 C87.6525468,80.7047189 89.2097917,79.5418946 91.2739977,79.5418946 L91.2739977,79.5418946 Z M130.770887,98.5269857 C130.836617,98.2742281 131.062477,98.2568206 131.223306,98.3487324 L131.223306,98.3487324 L138.017984,101.726493 C138.216573,101.814227 138.290694,101.955577 138.243145,102.140097 C138.198393,102.31278 138.036165,102.368484 137.850862,102.369876 L137.850862,102.369876 L131.066673,102.514707 L137.051611,105.499754 C137.239012,105.584703 137.310336,105.738585 137.262787,105.921713 C137.202651,106.151492 136.980287,106.15567 136.839037,106.082558 L136.839037,106.082558 L130.099601,102.731257 C129.826191,102.600352 129.769551,102.389373 129.811507,102.228527 C129.868147,102.009888 130.035968,101.931206 130.333852,101.921458 L130.333852,101.921458 L136.776804,101.812138 L130.98486,98.9371076 C130.831722,98.861907 130.728932,98.6878315 130.770887,98.5269857 Z M120.671941,96.4093225 C122.655033,96.4093225 123.919989,97.7044442 123.919989,99.6791566 C123.919989,101.756225 122.518678,103.152311 120.364268,103.152311 C118.41474,103.152311 117.149785,101.859278 117.149785,99.8497506 C117.149785,97.7712892 118.551795,96.4093225 120.671941,96.4093225 Z M48.5866093,98.5319295 C48.7831005,98.482492 48.9767946,98.6175746 49.0383292,98.8591914 L49.0383292,98.8591914 L49.7019239,101.480768 C49.7627592,101.722385 49.6131183,101.857468 49.3334156,101.867216 L49.3334156,101.867216 L41.870248,102.112314 C41.6653658,102.127633 41.5150256,102.01901 41.4653784,101.822653 L41.4653784,101.822653 L40.7989867,99.1899348 C40.7584298,99.0290891 40.8185659,98.8793842 40.9800942,98.837606 C41.1870742,98.7860797 41.3842646,98.9329994 41.4423029,99.1627791 L41.4423029,99.1627791 L42.0240845,101.462664 L45.0357835,101.355434 L44.5379126,99.3876846 C44.4973557,99.2282315 44.5805673,99.0722598 44.7309075,99.0353558 C44.9266994,98.9852221 45.1175965,99.1091638 45.1784318,99.3507806 L45.1784318,99.3507806 L45.6818967,101.339419 L48.988682,101.232189 L48.3971108,98.8960954 C48.3537568,98.7248051 48.4257803,98.572315 48.5866093,98.5319295 Z M80.2613328,74.8779943 C82.7527847,74.8779943 83.8820844,76.5066446 83.3758225,78.8329895 L83.3758225,78.8329895 L79.0152573,98.5292835 C78.5474545,100.700353 76.7174995,101.824184 74.809927,101.824184 C72.6681035,101.824184 71.4227272,100.19623 71.9289891,97.9847754 L71.9289891,97.9847754 L76.2895544,78.4451493 C76.7958163,76.1967902 78.1586677,74.8779943 80.2613328,74.8779943 Z M131.900978,92.6807877 L131.968015,92.6850122 C132.167303,92.7149531 132.297365,92.8897249 132.261003,93.125075 L132.261003,93.125075 L132.028151,94.6506726 L138.879469,97.240916 C139.074561,97.3056721 139.168961,97.4762661 139.142389,97.6524305 C139.108126,97.8759434 138.918627,97.9309512 138.711647,97.86341 L138.711647,97.86341 L131.928856,95.2961446 L131.695305,96.8210459 C131.670131,96.9853732 131.547761,97.0751961 131.394624,97.0522181 C131.194637,97.0215809 131.067372,96.8342756 131.101636,96.6107627 L131.101636,96.6107627 L131.668034,92.9154881 C131.693207,92.7504645 131.803689,92.6585527 131.968015,92.6850122 Z M47.6677859,92.3508568 C47.9272102,92.3111676 48.1397843,92.3961165 48.1642583,92.6328591 C48.1838374,92.821557 48.065663,92.9524617 47.8768637,92.9837953 L47.8768637,92.9837953 L45.8021689,93.3180203 L46.0685857,95.8790189 L48.3069066,96.6519141 C48.5194807,96.7375593 48.599196,96.8127599 48.6173766,96.9896206 C48.6411514,97.2138298 48.4264795,97.3440383 48.1649575,97.2514301 L48.1649575,97.2514301 L40.5234795,94.5309783 C40.2724463,94.4244441 40.1500764,94.2817022 40.1221061,94.0108407 C40.0962336,93.7629572 40.236085,93.6062893 40.5297728,93.5519777 L40.5297728,93.5519777 Z M117.101326,70.239718 C118.775347,70.239718 119.943106,71.2465706 119.943106,72.7596348 C119.943106,74.7371324 118.385861,76.1332179 116.205578,76.1332179 L116.205578,76.1332179 L112.078565,76.1332179 L111.182817,80.0882131 L113.869361,80.0882131 C115.582541,80.0882131 116.750999,81.134755 116.750999,82.60813 C116.750999,84.6629171 115.154595,86.0200096 112.973614,86.0200096 L112.973614,86.0200096 L109.859124,86.0200096 L108.807442,90.5954099 L113.05193,90.5954099 C114.492399,90.5954099 115.544081,91.6029589 115.544081,93.0763339 C115.544081,95.131121 113.869361,96.4875172 111.455527,96.4875172 L111.455527,96.4875172 L103.940615,96.4875172 C101.52678,96.4875172 100.631732,94.6659913 101.137294,92.4949217 L101.137294,92.4949217 L105.4594,73.5743081 C105.965662,71.4032386 107.522907,70.239718 109.625572,70.239718 L109.625572,70.239718 Z M45.1868229,93.3799912 L40.9206573,94.0839525 L40.9220559,94.0957896 L45.4273672,95.6958915 L45.1868229,93.3799912 Z M41.7227213,85.1925903 L41.870248,85.1942651 C43.1463917,85.2450952 44.0903883,86.0764797 44.3148497,87.3214677 L44.3148497,87.3214677 L47.7321176,86.6014914 C47.9971359,86.5409131 48.1810404,86.7142923 48.1719501,86.9517313 C48.1649575,87.1063104 48.0663623,87.1975259 47.8978414,87.2379114 L47.8978414,87.2379114 L44.3847754,87.9544062 L44.3351282,89.1750235 L47.7258243,90.0356528 C47.9146236,90.0906606 48.0411891,90.2146024 48.0341965,90.3803222 C48.0258054,90.594087 47.8174269,90.7284732 47.6286276,90.6734654 L47.6286276,90.6734654 L40.3060106,88.8143391 C40.105324,88.7690795 39.9920444,88.6110189 40.0004354,88.4097877 L40.0004354,88.4097877 L40.056376,87.0220578 C40.1074217,85.7408622 40.8213629,85.152487 41.870248,85.1942651 Z M41.9723395,85.9219007 C41.222037,85.8919597 40.6933989,86.2630887 40.6598346,87.1160586 L40.6598346,87.1160586 L40.6150821,88.2322306 L43.7470532,89.0225334 L43.7911064,87.9188948 C43.8372573,86.7560705 43.0694734,85.9650714 41.9723395,85.9219007 Z M138.955758,82.4034868 C139.185813,82.3261973 139.460621,82.399309 139.494885,82.6701705 C139.514464,82.8219643 139.436147,82.9647062 139.285807,83.0078769 L139.285807,83.0078769 L135.452481,84.3224951 L135.45388,84.3336359 L139.780181,86.2972075 C139.957793,86.3703192 139.986462,86.4984387 139.996951,86.5806024 C140.031914,86.8521601 139.759903,86.9823686 139.503975,86.8591231 L139.503975,86.8591231 L134.715465,84.5710749 L131.810752,84.3183172 C131.591885,84.2988208 131.477206,84.1560789 131.459725,84.0161222 C131.428958,83.7793795 131.616358,83.6484747 131.798865,83.6610082 L131.798865,83.6610082 L134.702878,83.9144621 Z M41.3737757,77.536336 C41.4213252,77.2787043 41.6457866,77.2487633 41.812909,77.3274454 L41.812909,77.3274454 L48.8250559,80.2310246 C49.0299381,80.305529 49.1131497,80.4406115 49.0781869,80.6279168 C49.0453218,80.8033849 48.8872898,80.8709262 48.7033852,80.8848522 L48.7033852,80.8848522 L41.9450685,81.4941164 L48.1223028,84.0627744 C48.3145985,84.1337972 48.3964115,84.2821095 48.3621479,84.4687185 C48.3180947,84.7026759 48.0957311,84.7214761 47.9502857,84.6581126 L47.9502857,84.6581126 L40.9947786,81.7761187 C40.7129781,81.6640141 40.6423532,81.4572124 40.6724212,81.2949741 C40.7143766,81.07355 40.8766042,80.9830308 41.1723898,80.9530898 L41.1723898,80.9530898 L47.5929655,80.4016186 L41.6150193,77.9311392 C41.4583858,77.8656868 41.3430084,77.699967 41.3737757,77.536336 Z M137.840443,76.5058091 C138.046025,76.491883 138.198462,76.6109507 138.24811,76.8080041 L138.24811,76.8080041 L138.588648,78.1546521 C138.904013,79.3968549 138.385863,80.1634833 137.367745,80.4190262 C136.13076,80.7295769 134.988175,80.1976021 134.419679,79.0668077 L134.419679,79.0668077 L131.345746,80.7198286 C131.109397,80.852126 130.883537,80.7372362 130.8248,80.5074565 C130.78704,80.3570553 130.856266,80.2428618 131.006607,80.155824 L131.006607,80.155824 L134.172841,78.4798252 L133.87286,77.2940229 L130.376576,77.4235351 C130.180085,77.4235351 130.023452,77.3406751 129.982895,77.1805257 C129.93045,76.9730277 130.091979,76.7843299 130.28847,76.7843299 L130.28847,76.7843299 Z M137.709682,77.151281 L134.481213,77.2759191 L134.751826,78.3468315 C135.037822,79.4748407 135.9993,80.0172599 137.063569,79.74988 C137.792194,79.5674489 138.193568,79.0619336 137.983791,78.2333343 L137.983791,78.2333343 L137.709682,77.151281 Z M42.5737004,73.7964981 C42.6485208,73.5597554 42.8485083,73.5597554 43.0429017,73.657934 L43.0429017,73.657934 L49.6361938,77.3908089 C49.8494671,77.5070913 49.8830314,77.6790779 49.8361812,77.8259976 C49.7718496,78.0300141 49.5536815,78.0857183 49.375371,77.9798803 L49.375371,77.9798803 L42.7701915,74.2442202 C42.5869862,74.1481306 42.5163613,73.9775366 42.5737004,73.7964981 Z M127.873237,70.6359834 L135.976924,71.0767426 C136.247536,71.1066835 136.405568,71.2083436 136.510457,71.4611012 C136.605556,71.6908809 136.517449,71.8816676 136.251032,72.0167502 L136.251032,72.0167502 L129.752839,75.1918872 C129.515092,75.3039919 129.287134,75.2824065 129.195532,75.0637677 C129.123508,74.8882996 129.199028,74.7281501 129.370346,74.6452902 L129.370346,74.6452902 L131.263933,73.7373124 L130.275184,71.356656 L127.908899,71.2515144 C127.680941,71.229929 127.583045,71.1811879 127.514518,71.0147717 C127.42781,70.80797 127.596331,70.6227537 127.873237,70.6359834 L127.873237,70.6359834 Z M45.5721134,66.6587065 C45.6811975,66.4212675 45.9063581,66.4449418 46.0490065,66.5619205 L46.0490065,66.5619205 L52.1479241,71.0676906 C52.3290316,71.1867583 52.3772803,71.340641 52.297565,71.5133239 C52.2234438,71.6755623 52.0535244,71.702718 51.8717177,71.6720807 L51.8717177,71.6720807 L45.1658452,70.6359834 L50.5368365,74.6153492 C50.7060566,74.7309353 50.7494105,74.8945663 50.6703945,75.0679455 C50.5711001,75.2831028 50.3508342,75.2482877 50.2256672,75.152198 L50.2256672,75.152198 L44.1749984,70.6826356 C43.92886,70.5057749 43.9099801,70.2871361 43.9799057,70.1374312 C44.0736061,69.9320221 44.2533151,69.8818884 44.5484015,69.9257554 L44.5484015,69.9257554 L50.9116381,70.9360896 L45.7112655,67.100162 C45.5742112,66.9985019 45.502887,66.8091077 45.5721134,66.6587065 Z M130.942974,71.3517818 L131.835925,73.5019623 L135.723793,71.6184655 L135.718898,71.6073247 L130.942974,71.3517818 Z M131.668803,62.9209575 C131.955498,62.8199937 132.145696,62.9279205 132.231704,63.0706624 C132.347781,63.2642344 132.286246,63.4390062 132.084161,63.6569487 L132.084161,63.6569487 L127.638986,68.3026755 L133.761678,66.2130733 C133.923207,66.1587617 134.118998,66.2075028 134.205007,66.3495484 C134.339964,66.5730614 134.19242,66.745048 134.01411,66.795878 L134.01411,66.795878 L126.829247,69.2419869 C126.626462,69.3220616 126.473325,69.2740167 126.375429,69.1117784 C126.283127,68.9592882 126.357248,68.8054055 126.485912,68.6724118 L126.485912,68.6724118 L131.145059,63.7593051 L124.808395,65.9073967 C124.616099,65.981901 124.456668,65.9248042 124.358772,65.760477 C124.236403,65.5564605 124.38954,65.3970073 124.541278,65.3489625 L124.541278,65.3489625 Z M49.6984276,60.2088613 C49.9277838,60.0313043 50.0963047,59.9700297 50.2256672,60.0542823 C50.4053762,60.1705647 50.4228576,60.3376772 50.3319542,60.4776339 C50.2151784,60.6558872 49.8131057,60.8348368 49.4355071,61.4113748 C48.2572594,63.212708 49.8858284,65.8147885 51.8437474,67.0848433 C52.9324902,67.7908935 53.8611032,67.7003743 54.5191038,66.6949142 C54.8057991,66.2569403 54.9862073,65.8496036 55.0827048,65.5293047 L55.0827048,65.5293047 L53.0296869,63.4891399 L52.3262346,64.5635339 C52.2416245,64.693046 52.0828932,64.7167203 51.9535307,64.6324678 C51.804589,64.5370744 51.7598366,64.3664804 51.8703191,64.1958864 L51.8703191,64.1958864 L52.7625708,62.8332235 C52.86676,62.6751629 53.1010111,62.643133 53.2436594,62.7921416 L53.2436594,62.7921416 L55.4540101,65.0056856 C55.6176362,65.1686203 55.6952537,65.3322513 55.6190347,65.6657799 C55.4882737,66.1907916 55.2190598,66.7102329 54.9386579,67.1377623 C54.1512947,68.3416684 52.9730471,68.6647525 51.4843294,67.7003743 C49.146714,66.1831323 47.5055584,63.2349897 48.9243504,61.066009 C49.1390222,60.7380508 49.4362063,60.392685 49.6984276,60.2088613 Z M129.493415,59.749302 C129.675222,59.652516 129.857028,59.6915089 129.974504,59.8412139 C130.12834,60.0368747 130.01506,60.2005057 129.824163,60.3042547 L129.824163,60.3042547 L123.004312,63.6089039 C122.787542,63.7182233 122.626014,63.6478968 122.530915,63.5260439 C122.398756,63.3582352 122.474975,63.1486483 122.663774,63.0616105 L122.663774,63.0616105 Z M125.857979,55.5352825 C126.028598,55.4210889 126.221592,55.4496373 126.34606,55.5770606 C126.510386,55.7490472 126.43137,55.923819 126.251661,56.0449755 L126.251661,56.0449755 L120.098201,59.8474806 L121.782011,61.5924133 C121.898088,61.7121773 121.911374,61.8799861 121.791801,61.9941796 C121.637265,62.1424919 121.402315,62.1041953 121.244982,61.9419569 L121.244982,61.9419569 L119.363282,59.9923114 C119.189167,59.8119692 119.252799,59.6051675 119.482855,59.4659071 L119.482855,59.4659071 Z M54.4156138,54.7240906 C54.5869317,54.5423558 54.7666407,54.6293936 54.898101,54.8013802 L54.898101,54.8013802 L59.2083197,61.0158753 C59.3495696,61.2136251 59.3048172,61.3814338 59.1985301,61.4949311 C59.0516862,61.6502064 58.8307211,61.6070357 58.7160429,61.4343528 L58.7160429,61.4343528 L54.3974331,55.211502 C54.2736647,55.0471748 54.2848528,54.8619584 54.4156138,54.7240906 Z M60.2746863,49.5986118 C60.4767715,49.4321956 60.6690671,49.5512633 60.7459854,49.7183757 L60.7459854,49.7183757 L64.249961,56.4279416 C64.3590451,56.6159431 64.3352704,56.7733074 64.1884264,56.8944639 C64.0506729,57.0072648 63.8856483,56.9585237 63.7360073,56.8512932 L63.7360073,56.8512932 L58.1608331,52.9972617 L61.2417584,58.9151322 C61.3431506,59.0940819 61.3102856,59.2598017 61.1627424,59.380262 C60.9795371,59.5320558 60.7963318,59.4053288 60.7257069,59.2625869 L60.7257069,59.2625869 L57.2497015,52.6080289 C57.1063539,52.3413453 57.1853699,52.1380251 57.3133339,52.0321872 C57.4881481,51.888749 57.6713533,51.9214752 57.918191,52.0899803 L57.918191,52.0899803 L63.1961811,55.7713288 L60.2054599,50.0553859 C60.1264439,49.9049847 60.146023,49.7044497 60.2746863,49.5986118 Z M121.128206,51.2418845 C121.286238,51.1109797 121.48203,51.1214242 121.635867,51.252329 L121.635867,51.252329 L122.600142,52.0656097 C123.409182,52.7500745 123.64623,53.6810303 122.781249,54.694846 C121.762432,55.8903965 120.142953,56.1236576 118.824854,55.0095745 L118.824854,55.0095745 L118.088537,54.3870805 L115.590093,56.3081776 C115.430662,56.4230675 115.254449,56.4460454 115.127185,56.3381186 C114.963558,56.1995545 114.985935,55.9537599 115.145365,55.8388701 L115.145365,55.8388701 Z M121.398119,51.8427931 L118.55634,54.0208257 L119.255597,54.6133786 C120.219872,55.4280519 121.411405,55.2024501 122.191076,54.2889019 C122.823904,53.5452514 122.688947,52.9345946 122.107865,52.4430054 L122.107865,52.4430054 L121.398119,51.8427931 Z M118.183636,49.0283405 C118.328382,48.8821171 118.513685,48.8647095 118.671018,48.9726363 C118.876599,49.1132893 118.817862,49.3040761 118.666822,49.4586551 L118.666822,49.4586551 L113.148288,54.6412307 C112.974173,54.8097358 112.799359,54.7916319 112.672094,54.7038979 C112.495182,54.5827413 112.504972,54.3578358 112.658808,54.2192717 L112.658808,54.2192717 Z M66.3722053,45.8344033 C66.5896742,45.7118542 66.7351196,45.8483294 66.8099401,46.0516495 L66.8099401,46.0516495 L69.0734343,53.2590713 C69.1496532,53.4888509 69.0566521,53.6378596 68.9216955,53.7144528 C68.734994,53.8188981 68.5371043,53.7123639 68.479066,53.5139178 L68.479066,53.5139178 L66.2092785,46.2939626 C66.1407514,46.1017833 66.2057822,45.9284041 66.3722053,45.8344033 Z M108.505223,49.4753664 C109.743607,47.0919247 112.509866,45.176398 114.669871,46.2890885 C114.976844,46.4471491 115.309691,46.7117438 115.529956,46.958931 C115.719455,47.1629475 115.818749,47.3077783 115.731342,47.4762834 C115.64883,47.6336476 115.504783,47.6796036 115.36703,47.6085808 C115.187321,47.5152763 114.910415,47.092621 114.433522,46.8461301 C112.59098,45.8977668 110.251966,47.6865666 109.199585,49.7128053 C108.552772,50.957097 108.773038,51.9521125 109.854089,52.5091541 C110.520481,52.8524309 111.081285,52.8085639 111.240016,52.8900312 C111.346303,52.9443428 111.419026,53.0620178 111.336514,53.2207747 C111.271483,53.3454127 111.142819,53.3871909 110.956118,53.3844056 C110.529571,53.3781389 109.839405,53.1824781 109.363211,52.9359872 C108.007352,52.2389889 107.716461,50.9926084 108.505223,49.4753664 Z M73.462669,42.6669256 C73.7046119,42.5680507 73.8528543,42.7386447 73.876629,42.9210759 L73.876629,42.9210759 L75.2506686,50.357581 C75.2989173,50.5692568 75.2303901,50.7133913 75.0541774,50.786503 C74.8884536,50.8540443 74.7458052,50.7586509 74.6332249,50.6131238 L74.6332249,50.6131238 L70.439782,45.3003397 L71.6411051,51.8581117 C71.6858576,52.0579504 71.605443,52.206959 71.4285311,52.2793744 C71.2089644,52.3698937 71.0712109,52.1951219 71.0453384,52.0377576 L71.0453384,52.0377576 L69.6838854,44.6611345 C69.6251479,44.3638135 69.7601044,44.1932196 69.9139409,44.1291598 C70.1237179,44.0428183 70.2887425,44.1291598 70.4754441,44.3610283 L70.4754441,44.3610283 L74.4360344,49.4224474 L73.2612831,43.0847068 C73.2305158,42.9175943 73.3081333,42.7316817 73.462669,42.6669256 Z M105.379545,44.5225704 C105.825671,43.3200569 106.971753,42.8319492 108.269573,43.3089161 C108.682834,43.4614062 109.024771,43.7385344 109.217066,43.9724918 C109.318459,44.1117522 109.378595,44.2224642 109.341534,44.3213391 C109.296082,44.4445846 109.148539,44.56783 108.970229,44.5016813 C108.791219,44.4355326 108.636683,44.0623148 108.067488,43.8541205 C107.138875,43.5108436 106.375287,43.8896319 106.086494,44.6687938 C105.47884,46.3064961 107.359141,47.3029042 106.668975,49.1627268 C106.197676,50.4320853 104.88587,50.9229782 103.476867,50.4049295 C103.029343,50.2385133 102.588112,49.8882734 102.372741,49.5429076 C102.257364,49.3750989 102.204919,49.2421052 102.250371,49.119556 C102.308409,48.9628881 102.496509,48.868191 102.652444,48.9259841 C102.921658,49.0234664 102.971305,49.5735449 103.776149,49.8708659 C104.793568,50.24478 105.660646,49.8304804 105.941048,49.0722075 C106.573876,47.366964 104.688679,46.382393 105.379545,44.5225704 Z M79.8426878,40.9185114 C80.0035169,40.8732517 80.1321801,40.9359189 80.1769325,41.0960684 C80.2307753,41.2896403 80.1230898,41.4783382 79.8930343,41.5430942 L79.8930343,41.5430942 L78.4008203,41.9560013 L78.8371566,49.2414089 C78.8567358,49.4447291 78.7399599,49.6000044 78.5672435,49.6487455 C78.3490753,49.7086275 78.2204121,49.5596189 78.1973366,49.343069 L78.1973366,49.343069 L77.7686922,42.1307731 L76.275779,42.5443765 C76.11495,42.5882435 75.9827904,42.5144355 75.9415343,42.3661232 C75.8876915,42.1718549 76.0065652,41.9789793 76.2247333,41.918401 L76.2247333,41.918401 Z M103.541578,41.8270494 L103.619516,41.8397189 C103.861459,41.9030824 103.870549,42.1022247 103.781743,42.2992782 L103.781743,42.2992782 L100.358182,49.0394813 C100.251895,49.2553349 100.080577,49.2978093 99.9309364,49.2588164 C99.7239564,49.2045049 99.6568277,48.9907402 99.7540244,48.8076128 L99.7540244,48.8076128 L103.180383,42.0562688 C103.266391,41.8703562 103.434912,41.7923703 103.619516,41.8397189 Z M85.3556282,40.1316901 C85.5199535,40.1066233 85.6640004,40.1804313 85.6891737,40.3447585 C85.7213395,40.5550417 85.5556156,40.7360802 85.3206654,40.772288 L85.3206654,40.772288 L82.9655686,41.1280983 L82.7844611,44.1235894 L84.7983206,43.8186091 C84.9633452,43.7942385 85.1101891,43.8910245 85.1339638,44.0435146 C85.1640318,44.2419607 85.0220827,44.4195177 84.7752451,44.457118 L84.7752451,44.457118 L82.7383101,44.7655798 L82.5292323,48.0535177 L84.9199912,47.6914407 C85.0969032,47.6642849 85.2423486,47.7499301 85.2675219,47.9142573 C85.2975899,48.1133997 85.1444527,48.2923493 84.8969158,48.3292533 L84.8969158,48.3292533 L82.212469,48.7358937 C81.9656314,48.7741903 81.8439607,48.6126482 81.8614421,48.3341274 L81.8614421,48.3341274 L82.3299441,40.912941 C82.3348389,40.7089245 82.4586074,40.5703604 82.6585948,40.5404194 L82.6585948,40.5404194 Z M96.0454499,40.3712809 L96.1241825,40.3753958 L97.1758647,40.518834 C98.8177196,40.742347 99.6617225,41.8620005 99.3876139,43.8624761 C99.0114137,46.603817 97.1709699,48.6293595 94.8557307,48.314631 L94.8557307,48.314631 L93.4145625,48.1189701 C93.0957014,48.0757994 93.1348598,47.7937971 93.211778,47.5772472 L93.211778,47.5772472 L95.714418,40.6434721 C95.7794489,40.4366704 95.9353832,40.3496327 96.1241825,40.3753958 Z M90.3909762,40.0000891 C91.6783079,39.9910371 92.3027442,40.6727168 92.3111353,41.7185623 C92.3209249,42.9886171 91.531464,43.9690103 90.2937795,44.2510126 L90.2937795,44.2510126 L91.1783393,47.6155438 C91.2524606,47.876657 91.0867367,48.0674438 90.8482902,48.0695327 C90.6937544,48.0709253 90.597257,47.9755319 90.548309,47.8105083 L90.548309,47.8105083 L89.6623507,44.3498875 L88.4344558,44.360332 L87.7338005,47.7722117 C87.6876495,47.9636948 87.5701744,48.0945995 87.4023528,48.0960083 C87.1883802,48.098081 87.0436341,47.8975461 87.089785,47.7074556 L87.089785,47.7074556 L88.6050744,40.3350103 C88.639338,40.1330827 88.7938738,40.0133188 88.9966582,40.0119262 L88.9966582,40.0119262 Z M96.2787182,41.0069417 L93.8865608,47.5723731 L94.8676181,47.7067593 C96.8052586,47.9706578 98.4023611,46.2333844 98.7198236,43.9146988 C98.9505784,42.2317369 98.3345332,41.2861588 97.1527892,41.1260094 L97.1527892,41.1260094 L96.2787182,41.0069417 Z M90.3245468,40.6058718 L89.2036382,40.6142274 L88.5610212,43.7670828 L89.6693432,43.7587271 C90.8378013,43.7489789 91.5943971,42.9475353 91.586006,41.8536449 C91.580412,41.1065129 91.1832341,40.5989088 90.3245468,40.6058718 L90.3245468,40.6058718 Z" id="LIFE"></path>
        </g>
    </g>
</svg>