<svg width="90" height="90" viewBox="0 0 90 90" fill="none" xmlns="http://www.w3.org/2000/svg">
<path d="M66.7087 40.0254C67.7986 40.0254 68.8708 39.9727 69.9607 40.043C70.6287 40.0957 71.2615 40.4473 71.2439 41.2383C71.2439 42.0117 70.6462 42.4336 69.9783 42.4512C67.6755 42.5039 65.3552 42.5039 63.0525 42.4336C62.4197 42.416 61.8044 41.959 61.8572 41.1504C61.8923 40.4473 62.49 40.1309 63.0349 40.0781C64.2478 39.9727 65.4783 40.043 66.7087 40.043C66.7087 40.043 66.7087 40.043 66.7087 40.0254Z" fill="#4F4F4F"/>
<path d="M45.9668 19.0898C45.9668 20.1621 46.0019 21.2344 45.9492 22.3066C45.9141 23.0625 45.5976 23.7832 44.7539 23.8535C43.8223 23.9238 43.541 23.0977 43.5234 22.3945C43.4531 20.25 43.4531 18.1055 43.5059 15.9609C43.5234 15.2402 43.7871 14.4141 44.666 14.4141C45.6152 14.4316 45.9141 15.2402 45.9492 16.084C46.0019 17.0859 45.9668 18.1055 45.9668 19.0898Z" fill="#4F4F4F"/>
<path d="M67.9745 28.3184C67.8163 29.0039 67.4647 29.4785 66.9549 29.7773C65.2147 30.7969 63.4745 31.8164 61.6991 32.7832C60.9784 33.1699 60.117 33.416 59.5897 32.5371C59.1327 31.7461 59.7303 31.1484 60.3631 30.7793C62.2088 29.6719 64.0721 28.5469 65.9881 27.5449C66.8846 27.0527 67.6581 27.3164 67.9745 28.3184Z" fill="#4F4F4F"/>
<path d="M58.5348 19.6172C57.322 21.5684 56.3376 24.0293 54.5798 26.0508C54.2458 26.4375 53.7536 26.5781 53.2438 26.1738C52.7692 25.8047 52.6989 25.2598 52.8923 24.8203C53.8942 22.5352 55.1598 20.373 56.6364 18.3516C56.9001 17.9824 57.4098 17.666 57.9723 17.9824C58.4469 18.2637 58.6052 18.7207 58.5348 19.6172Z" fill="#4F4F4F"/>
<path d="M32.0623 17.7715C32.8533 17.877 33.2576 18.2461 33.574 18.7559C34.5935 20.4961 35.6131 22.2363 36.5975 23.9941C37.0017 24.7148 37.283 25.5586 36.3865 26.0684C35.4725 26.5781 34.8924 25.8574 34.4705 25.1719C33.4334 23.4492 32.3963 21.709 31.4471 19.9336C30.9724 19.0371 30.9549 18.1406 32.0623 17.7715Z" fill="#4F4F4F"/>
<path d="M44.8594 75.5684C43.9278 75.5684 42.9961 75.5684 42.0645 75.5684C41.1856 75.5684 40.7461 75.1641 40.7637 74.25C40.7813 73.3359 41.2383 72.9492 42.0996 72.9492C44.1211 72.9492 46.125 72.9316 48.1289 72.9668C49.043 72.9844 49.377 73.582 49.3418 74.4082C49.3067 75.1816 48.8848 75.5684 48.1113 75.5684C47.0215 75.5684 45.9317 75.5684 44.8594 75.5684Z" fill="#4F4F4F"/>
<path d="M30.4802 31.5352C30.4099 32.7832 29.5661 32.9766 28.8103 32.5898C26.7009 31.5176 24.6619 30.3047 22.6404 29.0918C22.113 28.7754 21.9021 28.1777 22.1658 27.5801C22.3943 27.0527 22.9568 26.8066 23.4314 27C25.8044 28.0371 28.0369 29.3203 30.1286 30.8496C30.322 30.9902 30.3923 31.3418 30.4802 31.5352Z" fill="#4F4F4F"/>
<path d="M23.6249 39.375C24.6971 39.375 25.787 39.3398 26.8592 39.3926C27.5624 39.4277 28.16 39.7617 28.1952 40.5352C28.2128 41.1855 27.7206 41.6602 27.1053 41.6777C24.662 41.7305 22.2186 41.7305 19.7753 41.6602C19.1776 41.6426 18.6854 41.1504 18.7557 40.4824C18.8085 39.832 19.3358 39.4805 19.951 39.4453C21.1639 39.3926 22.3944 39.4277 23.6249 39.4277C23.6249 39.3926 23.6249 39.375 23.6249 39.375Z" fill="#4F4F4F"/>
<path d="M41.9061 27.8437C31.2713 29.8125 26.1561 41.9941 32.3084 50.748C33.7674 52.8223 35.5604 54.8613 36.0701 57.2695C37.1424 62.2793 40.0428 63.5273 43.699 62.4551C46.3885 62.4551 48.199 62.4023 50.0096 62.4727C51.0291 62.5078 51.6444 62.209 51.8905 61.1719C52.8924 57.0234 55.1951 53.5254 57.6385 50.1152C58.4998 48.9199 59.0975 47.6367 59.4315 46.2305C61.9451 35.5781 52.6815 25.8574 41.9061 27.8437ZM56.8651 45.6504C56.6365 46.6523 56.2498 47.5313 55.6346 48.375C53.2967 51.5742 51.1873 54.9316 49.8514 58.7109C49.535 59.625 49.0604 59.9238 48.1287 59.8535C46.9862 59.7832 45.826 59.8359 44.0858 59.8359C41.0975 60.8379 39.3397 59.2559 38.3377 55.8809C37.617 53.4902 35.9998 51.4336 34.5408 49.3594C29.4608 42.0996 33.5213 32.1152 42.2752 30.4277C51.2401 28.6875 58.9744 36.7559 56.8651 45.6504Z" fill="#4F4F4F"/>
<path d="M52.1541 66.4453C52.1189 64.9336 51.2928 64.2129 49.8338 64.1777C48.3221 64.1426 46.7928 64.1777 45.281 64.1777C43.6111 64.1777 41.9588 64.1777 40.2889 64.1777C38.7068 64.1777 37.8982 65.0039 37.8455 66.5684C37.8103 67.2891 37.8279 68.0098 37.8455 68.7305C37.8982 71.0332 38.4959 71.6309 40.8514 71.6484C43.5935 71.666 46.3357 71.666 49.0779 71.6484C51.6619 71.6309 52.1189 71.1738 52.1365 68.6074C52.1541 67.9043 52.1717 67.166 52.1541 66.4453ZM48.6736 69.0645C46.2303 69.0469 43.8045 69.0293 41.3611 69.0645C40.4471 69.082 40.3416 68.6426 40.324 67.8867C40.3064 67.0605 40.5525 66.7266 41.4139 66.7617C42.6971 66.8145 43.9978 66.7793 45.281 66.7793C46.4236 66.7793 47.5662 66.8145 48.7264 66.7617C49.6053 66.7266 49.7986 67.1309 49.7986 67.9219C49.7986 68.7656 49.4822 69.082 48.6736 69.0645Z" fill="#4F4F4F"/>
</svg>
