<svg width="56" height="72" viewBox="0 0 56 72" fill="none" xmlns="http://www.w3.org/2000/svg">
<path d="M39.9762 1.55828L54.3167 15.8988C54.3171 15.8992 54.3175 15.8996 54.3179 15.9C54.35 15.9326 54.3812 15.9659 54.4116 16H44.25C43.0897 16 41.9769 15.5391 41.1564 14.7186C40.3359 13.8981 39.875 12.7853 39.875 11.625V1.46345C39.9091 1.49379 39.9424 1.52501 39.975 1.55709C39.9754 1.55749 39.9758 1.55788 39.9762 1.55828Z" fill="#4F4F4F" stroke="#4F4F4F"/>
<path d="M15.0828 14.9162H14.9172L15 14.7508L15.0828 14.9162Z" fill="#4F4F4F" stroke="#4F4F4F"/>
<mask id="path-3-inside-1_27_21" fill="white">
<path d="M44.25 19.75C42.0959 19.7474 40.0308 18.8906 38.5076 17.3674C36.9844 15.8442 36.1276 13.7791 36.125 11.625V0.25H8.5C6.34512 0.25 4.27849 1.10602 2.75476 2.62976C1.23102 4.15349 0.375 6.22012 0.375 8.375V63.625C0.375 65.7799 1.23102 67.8465 2.75476 69.3702C4.27849 70.894 6.34512 71.75 8.5 71.75H47.5C48.567 71.75 49.6235 71.5398 50.6093 71.1315C51.5951 70.7232 52.4908 70.1247 53.2452 69.3702C53.9997 68.6158 54.5982 67.7201 55.0065 66.7343C55.4148 65.7485 55.625 64.692 55.625 63.625V19.75H44.25ZM22.3125 12.4375H23.125V11.625C23.125 11.194 23.2962 10.7807 23.601 10.476C23.9057 10.1712 24.319 10 24.75 10C25.181 10 25.5943 10.1712 25.899 10.476C26.2038 10.7807 26.375 11.194 26.375 11.625V12.4375H27.1875C27.6185 12.4375 28.0318 12.6087 28.3365 12.9135C28.6413 13.2182 28.8125 13.6315 28.8125 14.0625C28.8125 14.4935 28.6413 14.9068 28.3365 15.2115C28.0318 15.5163 27.6185 15.6875 27.1875 15.6875H26.375V16.5C26.375 16.931 26.2038 17.3443 25.899 17.649C25.5943 17.9538 25.181 18.125 24.75 18.125C24.319 18.125 23.9057 17.9538 23.601 17.649C23.2962 17.3443 23.125 16.931 23.125 16.5V15.6875H22.3125C21.8815 15.6875 21.4682 15.5163 21.1635 15.2115C20.8587 14.9068 20.6875 14.4935 20.6875 14.0625C20.6875 13.6315 20.8587 13.2182 21.1635 12.9135C21.4682 12.6087 21.8815 12.4375 22.3125 12.4375ZM9.39863 21.2125C9.20757 21.1172 9.03718 20.9851 8.89718 20.8239C8.75718 20.6627 8.65032 20.4755 8.58271 20.273C8.5151 20.0705 8.48807 19.8566 8.50315 19.6436C8.51824 19.4306 8.57514 19.2227 8.67062 19.0317L13.5456 9.28175C13.6958 9.02991 13.9087 8.82138 14.1637 8.67657C14.4186 8.53175 14.7068 8.45562 15 8.45562C15.2932 8.45562 15.5814 8.53175 15.8363 8.67657C16.0913 8.82138 16.3042 9.02991 16.4544 9.28175L21.3294 19.0317C21.522 19.4175 21.5535 19.8639 21.417 20.2729C21.2805 20.6819 20.9871 21.0199 20.6014 21.2125C20.2157 21.4051 19.7692 21.4367 19.3602 21.3001C18.9513 21.1636 18.6133 20.8702 18.4206 20.4845L17.5171 18.6742H12.4796L11.5875 20.4764C11.4929 20.6692 11.3611 20.8413 11.1996 20.9828C11.0381 21.1244 10.8501 21.2325 10.6466 21.3009C10.443 21.3694 10.228 21.3968 10.0138 21.3816C9.79955 21.3664 9.59048 21.309 9.39863 21.2125ZM36.125 62H11.75C11.319 62 10.9057 61.8288 10.601 61.524C10.2962 61.2193 10.125 60.806 10.125 60.375C10.125 59.944 10.2962 59.5307 10.601 59.226C10.9057 58.9212 11.319 58.75 11.75 58.75H36.125C36.556 58.75 36.9693 58.9212 37.274 59.226C37.5788 59.5307 37.75 59.944 37.75 60.375C37.75 60.806 37.5788 61.2193 37.274 61.524C36.9693 61.8288 36.556 62 36.125 62ZM44.25 53.875H11.75C11.319 53.875 10.9057 53.7038 10.601 53.399C10.2962 53.0943 10.125 52.681 10.125 52.25C10.125 51.819 10.2962 51.4057 10.601 51.101C10.9057 50.7962 11.319 50.625 11.75 50.625H44.25C44.681 50.625 45.0943 50.7962 45.399 51.101C45.7038 51.4057 45.875 51.819 45.875 52.25C45.875 52.681 45.7038 53.0943 45.399 53.399C45.0943 53.7038 44.681 53.875 44.25 53.875ZM44.25 45.75H11.75C11.319 45.75 10.9057 45.5788 10.601 45.274C10.2962 44.9693 10.125 44.556 10.125 44.125C10.125 43.694 10.2962 43.2807 10.601 42.976C10.9057 42.6712 11.319 42.5 11.75 42.5H44.25C44.681 42.5 45.0943 42.6712 45.399 42.976C45.7038 43.2807 45.875 43.694 45.875 44.125C45.875 44.556 45.7038 44.9693 45.399 45.274C45.0943 45.5788 44.681 45.75 44.25 45.75ZM44.25 37.625H11.75C11.319 37.625 10.9057 37.4538 10.601 37.149C10.2962 36.8443 10.125 36.431 10.125 36C10.125 35.569 10.2962 35.1557 10.601 34.851C10.9057 34.5462 11.319 34.375 11.75 34.375H44.25C44.681 34.375 45.0943 34.5462 45.399 34.851C45.7038 35.1557 45.875 35.569 45.875 36C45.875 36.431 45.7038 36.8443 45.399 37.149C45.0943 37.4538 44.681 37.625 44.25 37.625ZM44.25 29.5H16.625C16.194 29.5 15.7807 29.3288 15.476 29.024C15.1712 28.7193 15 28.306 15 27.875C15 27.444 15.1712 27.0307 15.476 26.726C15.7807 26.4212 16.194 26.25 16.625 26.25H44.25C44.681 26.25 45.0943 26.4212 45.399 26.726C45.7038 27.0307 45.875 27.444 45.875 27.875C45.875 28.306 45.7038 28.7193 45.399 29.024C45.0943 29.3288 44.681 29.5 44.25 29.5Z"/>
</mask>
<path d="M44.25 19.75C42.0959 19.7474 40.0308 18.8906 38.5076 17.3674C36.9844 15.8442 36.1276 13.7791 36.125 11.625V0.25H8.5C6.34512 0.25 4.27849 1.10602 2.75476 2.62976C1.23102 4.15349 0.375 6.22012 0.375 8.375V63.625C0.375 65.7799 1.23102 67.8465 2.75476 69.3702C4.27849 70.894 6.34512 71.75 8.5 71.75H47.5C48.567 71.75 49.6235 71.5398 50.6093 71.1315C51.5951 70.7232 52.4908 70.1247 53.2452 69.3702C53.9997 68.6158 54.5982 67.7201 55.0065 66.7343C55.4148 65.7485 55.625 64.692 55.625 63.625V19.75H44.25ZM22.3125 12.4375H23.125V11.625C23.125 11.194 23.2962 10.7807 23.601 10.476C23.9057 10.1712 24.319 10 24.75 10C25.181 10 25.5943 10.1712 25.899 10.476C26.2038 10.7807 26.375 11.194 26.375 11.625V12.4375H27.1875C27.6185 12.4375 28.0318 12.6087 28.3365 12.9135C28.6413 13.2182 28.8125 13.6315 28.8125 14.0625C28.8125 14.4935 28.6413 14.9068 28.3365 15.2115C28.0318 15.5163 27.6185 15.6875 27.1875 15.6875H26.375V16.5C26.375 16.931 26.2038 17.3443 25.899 17.649C25.5943 17.9538 25.181 18.125 24.75 18.125C24.319 18.125 23.9057 17.9538 23.601 17.649C23.2962 17.3443 23.125 16.931 23.125 16.5V15.6875H22.3125C21.8815 15.6875 21.4682 15.5163 21.1635 15.2115C20.8587 14.9068 20.6875 14.4935 20.6875 14.0625C20.6875 13.6315 20.8587 13.2182 21.1635 12.9135C21.4682 12.6087 21.8815 12.4375 22.3125 12.4375ZM9.39863 21.2125C9.20757 21.1172 9.03718 20.9851 8.89718 20.8239C8.75718 20.6627 8.65032 20.4755 8.58271 20.273C8.5151 20.0705 8.48807 19.8566 8.50315 19.6436C8.51824 19.4306 8.57514 19.2227 8.67062 19.0317L13.5456 9.28175C13.6958 9.02991 13.9087 8.82138 14.1637 8.67657C14.4186 8.53175 14.7068 8.45562 15 8.45562C15.2932 8.45562 15.5814 8.53175 15.8363 8.67657C16.0913 8.82138 16.3042 9.02991 16.4544 9.28175L21.3294 19.0317C21.522 19.4175 21.5535 19.8639 21.417 20.2729C21.2805 20.6819 20.9871 21.0199 20.6014 21.2125C20.2157 21.4051 19.7692 21.4367 19.3602 21.3001C18.9513 21.1636 18.6133 20.8702 18.4206 20.4845L17.5171 18.6742H12.4796L11.5875 20.4764C11.4929 20.6692 11.3611 20.8413 11.1996 20.9828C11.0381 21.1244 10.8501 21.2325 10.6466 21.3009C10.443 21.3694 10.228 21.3968 10.0138 21.3816C9.79955 21.3664 9.59048 21.309 9.39863 21.2125ZM36.125 62H11.75C11.319 62 10.9057 61.8288 10.601 61.524C10.2962 61.2193 10.125 60.806 10.125 60.375C10.125 59.944 10.2962 59.5307 10.601 59.226C10.9057 58.9212 11.319 58.75 11.75 58.75H36.125C36.556 58.75 36.9693 58.9212 37.274 59.226C37.5788 59.5307 37.75 59.944 37.75 60.375C37.75 60.806 37.5788 61.2193 37.274 61.524C36.9693 61.8288 36.556 62 36.125 62ZM44.25 53.875H11.75C11.319 53.875 10.9057 53.7038 10.601 53.399C10.2962 53.0943 10.125 52.681 10.125 52.25C10.125 51.819 10.2962 51.4057 10.601 51.101C10.9057 50.7962 11.319 50.625 11.75 50.625H44.25C44.681 50.625 45.0943 50.7962 45.399 51.101C45.7038 51.4057 45.875 51.819 45.875 52.25C45.875 52.681 45.7038 53.0943 45.399 53.399C45.0943 53.7038 44.681 53.875 44.25 53.875ZM44.25 45.75H11.75C11.319 45.75 10.9057 45.5788 10.601 45.274C10.2962 44.9693 10.125 44.556 10.125 44.125C10.125 43.694 10.2962 43.2807 10.601 42.976C10.9057 42.6712 11.319 42.5 11.75 42.5H44.25C44.681 42.5 45.0943 42.6712 45.399 42.976C45.7038 43.2807 45.875 43.694 45.875 44.125C45.875 44.556 45.7038 44.9693 45.399 45.274C45.0943 45.5788 44.681 45.75 44.25 45.75ZM44.25 37.625H11.75C11.319 37.625 10.9057 37.4538 10.601 37.149C10.2962 36.8443 10.125 36.431 10.125 36C10.125 35.569 10.2962 35.1557 10.601 34.851C10.9057 34.5462 11.319 34.375 11.75 34.375H44.25C44.681 34.375 45.0943 34.5462 45.399 34.851C45.7038 35.1557 45.875 35.569 45.875 36C45.875 36.431 45.7038 36.8443 45.399 37.149C45.0943 37.4538 44.681 37.625 44.25 37.625ZM44.25 29.5H16.625C16.194 29.5 15.7807 29.3288 15.476 29.024C15.1712 28.7193 15 28.306 15 27.875C15 27.444 15.1712 27.0307 15.476 26.726C15.7807 26.4212 16.194 26.25 16.625 26.25H44.25C44.681 26.25 45.0943 26.4212 45.399 26.726C45.7038 27.0307 45.875 27.444 45.875 27.875C45.875 28.306 45.7038 28.7193 45.399 29.024C45.0943 29.3288 44.681 29.5 44.25 29.5Z" fill="#4F4F4F" stroke="#4F4F4F" stroke-width="2" mask="url(#path-3-inside-1_27_21)"/>
</svg>
