<svg width="42" height="60" viewBox="0 0 42 60" fill="none" xmlns="http://www.w3.org/2000/svg">
<path d="M34.125 8.125H7.875C4.15625 8.125 1.3125 5.28125 1.3125 1.5625H40.6875C40.6875 5.28125 37.8438 8.125 34.125 8.125Z" stroke="black" stroke-width="2" stroke-miterlimit="10" stroke-linejoin="round"/>
<path d="M7.875 51.875H34.125C37.8438 51.875 40.6875 54.7187 40.6875 58.4375H1.3125C1.3125 54.7187 4.15625 51.875 7.875 51.875Z" stroke="black" stroke-width="2" stroke-miterlimit="10" stroke-linejoin="round"/>
<path d="M36.3125 51.875V43.125C36.3125 41.8125 35.6563 40.5 34.5625 39.625L26.4688 33.5C24.0625 31.75 24.0625 28.25 26.4688 26.5L34.5625 20.375C35.6563 19.5 36.3125 18.1875 36.3125 16.875V8.125" stroke="black" stroke-width="2" stroke-miterlimit="10" stroke-linejoin="round"/>
<path d="M5.6875 8.125V16.875C5.6875 18.1875 6.34375 19.5 7.4375 20.375L15.5312 26.5C17.9375 28.25 17.9375 31.75 15.5312 33.5L7.4375 39.625C6.34375 40.5 5.6875 41.8125 5.6875 43.125V51.875" stroke="black" stroke-width="2" stroke-miterlimit="10" stroke-linejoin="round"/>
<path d="M10.0625 51.875L21 40.9375L31.9375 51.875H10.0625Z" stroke="black" stroke-width="2" stroke-miterlimit="10" stroke-linejoin="round"/>
<path d="M21 21.25L14.4375 16.875H27.5625L21 21.25Z" stroke="black" stroke-width="2" stroke-miterlimit="10" stroke-linejoin="round"/>
</svg>
